<?xml version="1.0" encoding="UTF-8" standalone="no"?><!-- Generator: Gravit.io --><svg xmlns="http://www.w3.org/2000/svg" xmlns:xlink="http://www.w3.org/1999/xlink" style="isolation:isolate" viewBox="0 0 6560 4310" width="6560pt" height="4310pt"><defs><clipPath id="_clipPath_fNiE7Uu7cF4hTXM633f6G1DEk4ysKXtp"><rect width="6560" height="4310"/></clipPath></defs><g clip-path="url(#_clipPath_fNiE7Uu7cF4hTXM633f6G1DEk4ysKXtp)"><g><g style="opacity:0.7;"><g opacity="0.75"><path d=" M 1415.774 2301.13 L 1478.845 1998.388 L 803.983 1998.388 L 852.337 1767.127 L 1747.949 831.571 L 2115.864 831.571 L 1930.855 1704.056 L 2138.99 1704.056 L 2075.919 1998.388 L 1867.784 1998.388 L 1804.713 2301.13 L 1415.774 2301.13 L 1415.774 2301.13 Z  M 1289.631 1704.056 L 1598.68 1704.056 L 1686.98 1283.581 L 1289.631 1704.056 L 1289.631 1704.056 Z  M 2744.474 2332.666 L 2744.474 2332.666 Q 2584.693 2332.666 2463.807 2267.492 L 2463.807 2267.492 L 2463.807 2267.492 Q 2342.92 2202.319 2275.644 2077.227 L 2275.644 2077.227 L 2275.644 2077.227 Q 2208.368 1952.136 2208.368 1779.742 L 2208.368 1779.742 L 2208.368 1779.742 Q 2208.368 1670.418 2231.495 1567.402 L 2231.495 1567.402 L 2231.495 1567.402 Q 2281.951 1329.834 2400.736 1157.439 L 2400.736 1157.439 L 2400.736 1157.439 Q 2519.52 985.044 2690.863 892.54 L 2690.863 892.54 L 2690.863 892.54 Q 2862.207 800.035 3070.342 800.035 L 3070.342 800.035 L 3070.342 800.035 Q 3316.319 800.035 3462.434 947.202 L 3462.434 947.202 L 3462.434 947.202 Q 3608.549 1094.368 3608.549 1352.96 L 3608.549 1352.96 L 3608.549 1352.96 Q 3608.549 1460.181 3585.423 1567.402 L 3585.423 1567.402 L 3585.423 1567.402 Q 3534.966 1804.97 3414.08 1977.365 L 3414.08 1977.365 L 3414.08 1977.365 Q 3293.193 2149.759 3120.799 2241.213 L 3120.799 2241.213 L 3120.799 2241.213 Q 2948.404 2332.666 2744.474 2332.666 L 2744.474 2332.666 L 2744.474 2332.666 Z  M 2820.159 1983.672 L 2820.159 1983.672 Q 2961.018 1983.672 3060.881 1874.348 L 3060.881 1874.348 L 3060.881 1874.348 Q 3160.744 1765.025 3202.791 1571.607 L 3202.791 1571.607 L 3202.791 1571.607 Q 3223.815 1479.102 3223.815 1392.905 L 3223.815 1392.905 L 3223.815 1392.905 Q 3223.815 1275.172 3170.204 1213.152 L 3170.204 1213.152 L 3170.204 1213.152 Q 3116.594 1151.132 2996.758 1151.132 L 2996.758 1151.132 L 2996.758 1151.132 Q 2853.797 1151.132 2752.883 1263.609 L 2752.883 1263.609 L 2752.883 1263.609 Q 2651.969 1376.086 2609.922 1571.607 L 2609.922 1571.607 L 2609.922 1571.607 Q 2588.898 1676.725 2588.898 1744.001 L 2588.898 1744.001 L 2588.898 1744.001 Q 2588.898 1983.672 2820.159 1983.672 L 2820.159 1983.672 L 2820.159 1983.672 Z  M 4167.781 2301.13 L 4230.852 1998.388 L 3555.99 1998.388 L 3604.344 1767.127 L 4499.956 831.571 L 4867.871 831.571 L 4682.862 1704.056 L 4890.997 1704.056 L 4827.926 1998.388 L 4619.791 1998.388 L 4556.72 2301.13 L 4167.781 2301.13 L 4167.781 2301.13 Z  M 4041.638 1704.056 L 4350.687 1704.056 L 4438.987 1283.581 L 4041.638 1704.056 L 4041.638 1704.056 Z " fill="rgb(204,104,104)"/></g><g opacity="0.85"><path d=" M 1324.366 2209.723 L 1387.437 1906.981 L 712.575 1906.981 L 760.93 1675.72 L 1656.541 740.164 L 2024.456 740.164 L 1839.448 1612.649 L 2047.583 1612.649 L 1984.511 1906.981 L 1776.376 1906.981 L 1713.305 2209.723 L 1324.366 2209.723 L 1324.366 2209.723 Z  M 1198.224 1612.649 L 1507.273 1612.649 L 1595.572 1192.174 L 1198.224 1612.649 L 1198.224 1612.649 Z  M 2653.066 2241.258 L 2653.066 2241.258 Q 2493.286 2241.258 2372.399 2176.085 L 2372.399 2176.085 L 2372.399 2176.085 Q 2251.513 2110.911 2184.237 1985.82 L 2184.237 1985.82 L 2184.237 1985.82 Q 2116.961 1860.729 2116.961 1688.334 L 2116.961 1688.334 L 2116.961 1688.334 Q 2116.961 1579.011 2140.087 1475.994 L 2140.087 1475.994 L 2140.087 1475.994 Q 2190.544 1238.426 2309.328 1066.031 L 2309.328 1066.031 L 2309.328 1066.031 Q 2428.112 893.637 2599.456 801.132 L 2599.456 801.132 L 2599.456 801.132 Q 2770.799 708.628 2978.934 708.628 L 2978.934 708.628 L 2978.934 708.628 Q 3224.912 708.628 3371.027 855.794 L 3371.027 855.794 L 3371.027 855.794 Q 3517.142 1002.96 3517.142 1261.552 L 3517.142 1261.552 L 3517.142 1261.552 Q 3517.142 1368.773 3494.016 1475.994 L 3494.016 1475.994 L 3494.016 1475.994 Q 3443.559 1713.562 3322.672 1885.957 L 3322.672 1885.957 L 3322.672 1885.957 Q 3201.786 2058.352 3029.391 2149.805 L 3029.391 2149.805 L 3029.391 2149.805 Q 2856.996 2241.258 2653.066 2241.258 L 2653.066 2241.258 L 2653.066 2241.258 Z  M 2728.752 1892.264 L 2728.752 1892.264 Q 2869.611 1892.264 2969.473 1782.941 L 2969.473 1782.941 L 2969.473 1782.941 Q 3069.336 1673.617 3111.384 1480.199 L 3111.384 1480.199 L 3111.384 1480.199 Q 3132.407 1387.695 3132.407 1301.497 L 3132.407 1301.497 L 3132.407 1301.497 Q 3132.407 1183.764 3078.797 1121.744 L 3078.797 1121.744 L 3078.797 1121.744 Q 3025.186 1059.724 2905.351 1059.724 L 2905.351 1059.724 L 2905.351 1059.724 Q 2762.39 1059.724 2661.476 1172.201 L 2661.476 1172.201 L 2661.476 1172.201 Q 2560.562 1284.678 2518.514 1480.199 L 2518.514 1480.199 L 2518.514 1480.199 Q 2497.49 1585.318 2497.49 1652.594 L 2497.49 1652.594 L 2497.49 1652.594 Q 2497.49 1892.264 2728.752 1892.264 L 2728.752 1892.264 L 2728.752 1892.264 Z  M 4076.373 2209.723 L 4139.444 1906.981 L 3464.582 1906.981 L 3512.937 1675.72 L 4408.548 740.164 L 4776.463 740.164 L 4591.455 1612.649 L 4799.59 1612.649 L 4736.518 1906.981 L 4528.383 1906.981 L 4465.312 2209.723 L 4076.373 2209.723 L 4076.373 2209.723 Z  M 3950.231 1612.649 L 4259.28 1612.649 L 4347.579 1192.174 L 3950.231 1612.649 L 3950.231 1612.649 Z " fill="rgb(204,104,104)"/></g><path d=" M 1232.958 2118.315 L 1296.03 1815.573 L 621.168 1815.573 L 669.522 1584.312 L 1565.134 648.756 L 1933.049 648.756 L 1748.04 1521.241 L 1956.175 1521.241 L 1893.104 1815.573 L 1684.969 1815.573 L 1621.898 2118.315 L 1232.958 2118.315 L 1232.958 2118.315 Z  M 1106.816 1521.241 L 1415.865 1521.241 L 1504.165 1100.766 L 1106.816 1521.241 L 1106.816 1521.241 Z  M 2561.659 2149.851 L 2561.659 2149.851 Q 2401.878 2149.851 2280.992 2084.677 L 2280.992 2084.677 L 2280.992 2084.677 Q 2160.105 2019.504 2092.829 1894.412 L 2092.829 1894.412 L 2092.829 1894.412 Q 2025.553 1769.321 2025.553 1596.926 L 2025.553 1596.926 L 2025.553 1596.926 Q 2025.553 1487.603 2048.679 1384.587 L 2048.679 1384.587 L 2048.679 1384.587 Q 2099.136 1147.019 2217.92 974.624 L 2217.92 974.624 L 2217.92 974.624 Q 2336.705 802.229 2508.048 709.725 L 2508.048 709.725 L 2508.048 709.725 Q 2679.391 617.22 2887.526 617.22 L 2887.526 617.22 L 2887.526 617.22 Q 3133.504 617.22 3279.619 764.387 L 3279.619 764.387 L 3279.619 764.387 Q 3425.734 911.553 3425.734 1170.145 L 3425.734 1170.145 L 3425.734 1170.145 Q 3425.734 1277.366 3402.608 1384.587 L 3402.608 1384.587 L 3402.608 1384.587 Q 3352.151 1622.155 3231.265 1794.55 L 3231.265 1794.55 L 3231.265 1794.55 Q 3110.378 1966.944 2937.983 2058.397 L 2937.983 2058.397 L 2937.983 2058.397 Q 2765.589 2149.851 2561.659 2149.851 L 2561.659 2149.851 L 2561.659 2149.851 Z  M 2637.344 1800.857 L 2637.344 1800.857 Q 2778.203 1800.857 2878.066 1691.533 L 2878.066 1691.533 L 2878.066 1691.533 Q 2977.929 1582.21 3019.976 1388.791 L 3019.976 1388.791 L 3019.976 1388.791 Q 3041 1296.287 3041 1210.09 L 3041 1210.09 L 3041 1210.09 Q 3041 1092.357 2987.389 1030.337 L 2987.389 1030.337 L 2987.389 1030.337 Q 2933.779 968.317 2813.943 968.317 L 2813.943 968.317 L 2813.943 968.317 Q 2670.982 968.317 2570.068 1080.794 L 2570.068 1080.794 L 2570.068 1080.794 Q 2469.154 1193.271 2427.107 1388.791 L 2427.107 1388.791 L 2427.107 1388.791 Q 2406.083 1493.91 2406.083 1561.186 L 2406.083 1561.186 L 2406.083 1561.186 Q 2406.083 1800.857 2637.344 1800.857 L 2637.344 1800.857 L 2637.344 1800.857 Z  M 3984.965 2118.315 L 4048.037 1815.573 L 3373.175 1815.573 L 3421.529 1584.312 L 4317.14 648.756 L 4685.056 648.756 L 4500.047 1521.241 L 4708.182 1521.241 L 4645.111 1815.573 L 4436.976 1815.573 L 4373.905 2118.315 L 3984.965 2118.315 L 3984.965 2118.315 Z  M 3858.823 1521.241 L 4167.872 1521.241 L 4256.172 1100.766 L 3858.823 1521.241 L 3858.823 1521.241 Z " fill="rgb(204,104,104)"/></g><g><g opacity="0.75"><path d=" M 806.39 1691.747 L 869.461 1389.005 L 194.599 1389.005 L 242.954 1157.744 L 1138.565 222.187 L 1506.48 222.187 L 1321.471 1094.672 L 1529.606 1094.672 L 1466.535 1389.005 L 1258.4 1389.005 L 1195.329 1691.747 L 806.39 1691.747 L 806.39 1691.747 Z  M 680.248 1094.672 L 989.296 1094.672 L 1077.596 674.198 L 680.248 1094.672 L 680.248 1094.672 Z  M 2135.09 1723.282 L 2135.09 1723.282 Q 1975.31 1723.282 1854.423 1658.109 L 1854.423 1658.109 L 1854.423 1658.109 Q 1733.537 1592.935 1666.261 1467.844 L 1666.261 1467.844 L 1666.261 1467.844 Q 1598.985 1342.753 1598.985 1170.358 L 1598.985 1170.358 L 1598.985 1170.358 Q 1598.985 1061.034 1622.111 958.018 L 1622.111 958.018 L 1622.111 958.018 Q 1672.568 720.45 1791.352 548.055 L 1791.352 548.055 L 1791.352 548.055 Q 1910.136 375.661 2081.479 283.156 L 2081.479 283.156 L 2081.479 283.156 Q 2252.823 190.652 2460.958 190.652 L 2460.958 190.652 L 2460.958 190.652 Q 2706.936 190.652 2853.051 337.818 L 2853.051 337.818 L 2853.051 337.818 Q 2999.166 484.984 2999.166 743.576 L 2999.166 743.576 L 2999.166 743.576 Q 2999.166 850.797 2976.039 958.018 L 2976.039 958.018 L 2976.039 958.018 Q 2925.582 1195.586 2804.696 1367.981 L 2804.696 1367.981 L 2804.696 1367.981 Q 2683.81 1540.376 2511.415 1631.829 L 2511.415 1631.829 L 2511.415 1631.829 Q 2339.02 1723.282 2135.09 1723.282 L 2135.09 1723.282 L 2135.09 1723.282 Z  M 2210.775 1374.288 L 2210.775 1374.288 Q 2351.634 1374.288 2451.497 1264.965 L 2451.497 1264.965 L 2451.497 1264.965 Q 2551.36 1155.641 2593.407 962.223 L 2593.407 962.223 L 2593.407 962.223 Q 2614.431 869.719 2614.431 783.521 L 2614.431 783.521 L 2614.431 783.521 Q 2614.431 665.788 2560.821 603.768 L 2560.821 603.768 L 2560.821 603.768 Q 2507.21 541.748 2387.375 541.748 L 2387.375 541.748 L 2387.375 541.748 Q 2244.413 541.748 2143.5 654.225 L 2143.5 654.225 L 2143.5 654.225 Q 2042.586 766.702 2000.538 962.223 L 2000.538 962.223 L 2000.538 962.223 Q 1979.514 1067.342 1979.514 1134.618 L 1979.514 1134.618 L 1979.514 1134.618 Q 1979.514 1374.288 2210.775 1374.288 L 2210.775 1374.288 L 2210.775 1374.288 Z  M 3558.397 1691.747 L 3621.468 1389.005 L 2946.606 1389.005 L 2994.961 1157.744 L 3890.572 222.187 L 4258.487 222.187 L 4073.478 1094.672 L 4281.613 1094.672 L 4218.542 1389.005 L 4010.407 1389.005 L 3947.336 1691.747 L 3558.397 1691.747 L 3558.397 1691.747 Z  M 3432.255 1094.672 L 3741.303 1094.672 L 3829.603 674.198 L 3432.255 1094.672 L 3432.255 1094.672 Z " fill="rgb(204,104,104)"/></g><g opacity="0.85"><path d=" M 714.982 1600.339 L 778.054 1297.597 L 103.192 1297.597 L 151.546 1066.336 L 1047.157 130.78 L 1415.073 130.78 L 1230.064 1003.265 L 1438.199 1003.265 L 1375.128 1297.597 L 1166.993 1297.597 L 1103.922 1600.339 L 714.982 1600.339 L 714.982 1600.339 Z  M 588.84 1003.265 L 897.889 1003.265 L 986.189 582.79 L 588.84 1003.265 L 588.84 1003.265 Z  M 2043.682 1631.875 L 2043.682 1631.875 Q 1883.902 1631.875 1763.016 1566.701 L 1763.016 1566.701 L 1763.016 1566.701 Q 1642.129 1501.527 1574.853 1376.436 L 1574.853 1376.436 L 1574.853 1376.436 Q 1507.577 1251.345 1507.577 1078.95 L 1507.577 1078.95 L 1507.577 1078.95 Q 1507.577 969.627 1530.703 866.611 L 1530.703 866.611 L 1530.703 866.611 Q 1581.16 629.042 1699.944 456.648 L 1699.944 456.648 L 1699.944 456.648 Q 1818.729 284.253 1990.072 191.749 L 1990.072 191.749 L 1990.072 191.749 Q 2161.415 99.244 2369.55 99.244 L 2369.55 99.244 L 2369.55 99.244 Q 2615.528 99.244 2761.643 246.41 L 2761.643 246.41 L 2761.643 246.41 Q 2907.758 393.577 2907.758 652.169 L 2907.758 652.169 L 2907.758 652.169 Q 2907.758 759.39 2884.632 866.611 L 2884.632 866.611 L 2884.632 866.611 Q 2834.175 1104.179 2713.288 1276.573 L 2713.288 1276.573 L 2713.288 1276.573 Q 2592.402 1448.968 2420.007 1540.421 L 2420.007 1540.421 L 2420.007 1540.421 Q 2247.613 1631.875 2043.682 1631.875 L 2043.682 1631.875 L 2043.682 1631.875 Z  M 2119.368 1282.881 L 2119.368 1282.881 Q 2260.227 1282.881 2360.09 1173.557 L 2360.09 1173.557 L 2360.09 1173.557 Q 2459.952 1064.234 2502 870.815 L 2502 870.815 L 2502 870.815 Q 2523.024 778.311 2523.024 692.114 L 2523.024 692.114 L 2523.024 692.114 Q 2523.024 574.381 2469.413 512.361 L 2469.413 512.361 L 2469.413 512.361 Q 2415.803 450.341 2295.967 450.341 L 2295.967 450.341 L 2295.967 450.341 Q 2153.006 450.341 2052.092 562.818 L 2052.092 562.818 L 2052.092 562.818 Q 1951.178 675.295 1909.131 870.815 L 1909.131 870.815 L 1909.131 870.815 Q 1888.107 975.934 1888.107 1043.21 L 1888.107 1043.21 L 1888.107 1043.21 Q 1888.107 1282.881 2119.368 1282.881 L 2119.368 1282.881 L 2119.368 1282.881 Z  M 3466.989 1600.339 L 3530.061 1297.597 L 2855.199 1297.597 L 2903.553 1066.336 L 3799.164 130.78 L 4167.08 130.78 L 3982.071 1003.265 L 4190.206 1003.265 L 4127.135 1297.597 L 3919 1297.597 L 3855.928 1600.339 L 3466.989 1600.339 L 3466.989 1600.339 Z  M 3340.847 1003.265 L 3649.896 1003.265 L 3738.196 582.79 L 3340.847 1003.265 L 3340.847 1003.265 Z " fill="rgb(204,104,104)"/></g><path d=" M 623.575 1508.931 L 686.646 1206.19 L 11.784 1206.19 L 60.139 974.929 L 955.75 39.372 L 1323.665 39.372 L 1138.656 911.857 L 1346.791 911.857 L 1283.72 1206.19 L 1075.585 1206.19 L 1012.514 1508.931 L 623.575 1508.931 L 623.575 1508.931 Z  M 497.432 911.857 L 806.481 911.857 L 894.781 491.383 L 497.432 911.857 L 497.432 911.857 Z  M 1952.275 1540.467 L 1952.275 1540.467 Q 1792.495 1540.467 1671.608 1475.293 L 1671.608 1475.293 L 1671.608 1475.293 Q 1550.722 1410.12 1483.446 1285.029 L 1483.446 1285.029 L 1483.446 1285.029 Q 1416.17 1159.937 1416.17 987.543 L 1416.17 987.543 L 1416.17 987.543 Q 1416.17 878.219 1439.296 775.203 L 1439.296 775.203 L 1439.296 775.203 Q 1489.753 537.635 1608.537 365.24 L 1608.537 365.24 L 1608.537 365.24 Q 1727.321 192.846 1898.664 100.341 L 1898.664 100.341 L 1898.664 100.341 Q 2070.008 7.837 2278.143 7.837 L 2278.143 7.837 L 2278.143 7.837 Q 2524.121 7.837 2670.235 155.003 L 2670.235 155.003 L 2670.235 155.003 Q 2816.35 302.169 2816.35 560.761 L 2816.35 560.761 L 2816.35 560.761 Q 2816.35 667.982 2793.224 775.203 L 2793.224 775.203 L 2793.224 775.203 Q 2742.767 1012.771 2621.881 1185.166 L 2621.881 1185.166 L 2621.881 1185.166 Q 2500.994 1357.561 2328.6 1449.014 L 2328.6 1449.014 L 2328.6 1449.014 Q 2156.205 1540.467 1952.275 1540.467 L 1952.275 1540.467 L 1952.275 1540.467 Z  M 2027.96 1191.473 L 2027.96 1191.473 Q 2168.819 1191.473 2268.682 1082.15 L 2268.682 1082.15 L 2268.682 1082.15 Q 2368.545 972.826 2410.592 779.408 L 2410.592 779.408 L 2410.592 779.408 Q 2431.616 686.903 2431.616 600.706 L 2431.616 600.706 L 2431.616 600.706 Q 2431.616 482.973 2378.006 420.953 L 2378.006 420.953 L 2378.006 420.953 Q 2324.395 358.933 2204.56 358.933 L 2204.56 358.933 L 2204.56 358.933 Q 2061.598 358.933 1960.684 471.41 L 1960.684 471.41 L 1960.684 471.41 Q 1859.77 583.887 1817.723 779.408 L 1817.723 779.408 L 1817.723 779.408 Q 1796.699 884.527 1796.699 951.802 L 1796.699 951.802 L 1796.699 951.802 Q 1796.699 1191.473 2027.96 1191.473 L 2027.96 1191.473 L 2027.96 1191.473 Z  M 3375.582 1508.931 L 3438.653 1206.19 L 2763.791 1206.19 L 2812.146 974.929 L 3707.757 39.372 L 4075.672 39.372 L 3890.663 911.857 L 4098.798 911.857 L 4035.727 1206.19 L 3827.592 1206.19 L 3764.521 1508.931 L 3375.582 1508.931 L 3375.582 1508.931 Z  M 3249.439 911.857 L 3558.488 911.857 L 3646.788 491.383 L 3249.439 911.857 L 3249.439 911.857 Z " fill="rgb(204,104,104)"/></g><g style="opacity:0.7;"><g opacity="0.75"><path d=" M 3045.875 4205.454 L 3108.946 3902.712 L 2434.084 3902.712 L 2482.439 3671.451 L 3378.05 2735.895 L 3745.965 2735.895 L 3560.956 3608.38 L 3769.091 3608.38 L 3706.02 3902.712 L 3497.885 3902.712 L 3434.814 4205.454 L 3045.875 4205.454 L 3045.875 4205.454 Z  M 2919.732 3608.38 L 3228.781 3608.38 L 3317.081 3187.905 L 2919.732 3608.38 L 2919.732 3608.38 Z  M 4374.575 4236.99 L 4374.575 4236.99 Q 4214.794 4236.99 4093.908 4171.816 L 4093.908 4171.816 L 4093.908 4171.816 Q 3973.022 4106.643 3905.746 3981.551 L 3905.746 3981.551 L 3905.746 3981.551 Q 3838.47 3856.46 3838.47 3684.065 L 3838.47 3684.065 L 3838.47 3684.065 Q 3838.47 3574.742 3861.596 3471.726 L 3861.596 3471.726 L 3861.596 3471.726 Q 3912.053 3234.157 4030.837 3061.763 L 4030.837 3061.763 L 4030.837 3061.763 Q 4149.621 2889.368 4320.964 2796.864 L 4320.964 2796.864 L 4320.964 2796.864 Q 4492.308 2704.359 4700.443 2704.359 L 4700.443 2704.359 L 4700.443 2704.359 Q 4946.42 2704.359 5092.535 2851.525 L 5092.535 2851.525 L 5092.535 2851.525 Q 5238.65 2998.692 5238.65 3257.284 L 5238.65 3257.284 L 5238.65 3257.284 Q 5238.65 3364.505 5215.524 3471.726 L 5215.524 3471.726 L 5215.524 3471.726 Q 5165.067 3709.294 5044.181 3881.689 L 5044.181 3881.689 L 5044.181 3881.689 Q 4923.294 4054.083 4750.9 4145.536 L 4750.9 4145.536 L 4750.9 4145.536 Q 4578.505 4236.99 4374.575 4236.99 L 4374.575 4236.99 L 4374.575 4236.99 Z  M 4450.26 3887.996 L 4450.26 3887.996 Q 4591.119 3887.996 4690.982 3778.672 L 4690.982 3778.672 L 4690.982 3778.672 Q 4790.845 3669.349 4832.892 3475.93 L 4832.892 3475.93 L 4832.892 3475.93 Q 4853.916 3383.426 4853.916 3297.229 L 4853.916 3297.229 L 4853.916 3297.229 Q 4853.916 3179.496 4800.306 3117.476 L 4800.306 3117.476 L 4800.306 3117.476 Q 4746.695 3055.456 4626.86 3055.456 L 4626.86 3055.456 L 4626.86 3055.456 Q 4483.898 3055.456 4382.984 3167.933 L 4382.984 3167.933 L 4382.984 3167.933 Q 4282.07 3280.41 4240.023 3475.93 L 4240.023 3475.93 L 4240.023 3475.93 Q 4218.999 3581.049 4218.999 3648.325 L 4218.999 3648.325 L 4218.999 3648.325 Q 4218.999 3887.996 4450.26 3887.996 L 4450.26 3887.996 L 4450.26 3887.996 Z  M 5797.882 4205.454 L 5860.953 3902.712 L 5186.091 3902.712 L 5234.446 3671.451 L 6130.057 2735.895 L 6497.972 2735.895 L 6312.963 3608.38 L 6521.098 3608.38 L 6458.027 3902.712 L 6249.892 3902.712 L 6186.821 4205.454 L 5797.882 4205.454 L 5797.882 4205.454 Z  M 5671.739 3608.38 L 5980.788 3608.38 L 6069.088 3187.905 L 5671.739 3608.38 L 5671.739 3608.38 Z " fill="rgb(102,118,210)"/></g><g opacity="0.85"><path d=" M 2954.467 4114.047 L 3017.538 3811.305 L 2342.677 3811.305 L 2391.031 3580.044 L 3286.642 2644.487 L 3654.558 2644.487 L 3469.549 3516.972 L 3677.684 3516.972 L 3614.613 3811.305 L 3406.478 3811.305 L 3343.406 4114.047 L 2954.467 4114.047 L 2954.467 4114.047 Z  M 2828.325 3516.972 L 3137.374 3516.972 L 3225.673 3096.498 L 2828.325 3516.972 L 2828.325 3516.972 Z  M 4283.167 4145.582 L 4283.167 4145.582 Q 4123.387 4145.582 4002.5 4080.409 L 4002.5 4080.409 L 4002.5 4080.409 Q 3881.614 4015.235 3814.338 3890.144 L 3814.338 3890.144 L 3814.338 3890.144 Q 3747.062 3765.053 3747.062 3592.658 L 3747.062 3592.658 L 3747.062 3592.658 Q 3747.062 3483.334 3770.188 3380.318 L 3770.188 3380.318 L 3770.188 3380.318 Q 3820.645 3142.75 3939.429 2970.355 L 3939.429 2970.355 L 3939.429 2970.355 Q 4058.213 2797.961 4229.557 2705.456 L 4229.557 2705.456 L 4229.557 2705.456 Q 4400.9 2612.952 4609.035 2612.952 L 4609.035 2612.952 L 4609.035 2612.952 Q 4855.013 2612.952 5001.128 2760.118 L 5001.128 2760.118 L 5001.128 2760.118 Q 5147.243 2907.284 5147.243 3165.876 L 5147.243 3165.876 L 5147.243 3165.876 Q 5147.243 3273.097 5124.117 3380.318 L 5124.117 3380.318 L 5124.117 3380.318 Q 5073.66 3617.886 4952.773 3790.281 L 4952.773 3790.281 L 4952.773 3790.281 Q 4831.887 3962.676 4659.492 4054.129 L 4659.492 4054.129 L 4659.492 4054.129 Q 4487.098 4145.582 4283.167 4145.582 L 4283.167 4145.582 L 4283.167 4145.582 Z  M 4358.853 3796.588 L 4358.853 3796.588 Q 4499.712 3796.588 4599.575 3687.265 L 4599.575 3687.265 L 4599.575 3687.265 Q 4699.437 3577.941 4741.485 3384.523 L 4741.485 3384.523 L 4741.485 3384.523 Q 4762.509 3292.018 4762.509 3205.821 L 4762.509 3205.821 L 4762.509 3205.821 Q 4762.509 3088.088 4708.898 3026.068 L 4708.898 3026.068 L 4708.898 3026.068 Q 4655.287 2964.048 4535.452 2964.048 L 4535.452 2964.048 L 4535.452 2964.048 Q 4392.491 2964.048 4291.577 3076.525 L 4291.577 3076.525 L 4291.577 3076.525 Q 4190.663 3189.002 4148.615 3384.523 L 4148.615 3384.523 L 4148.615 3384.523 Q 4127.592 3489.642 4127.592 3556.918 L 4127.592 3556.918 L 4127.592 3556.918 Q 4127.592 3796.588 4358.853 3796.588 L 4358.853 3796.588 L 4358.853 3796.588 Z  M 5706.474 4114.047 L 5769.545 3811.305 L 5094.684 3811.305 L 5143.038 3580.044 L 6038.649 2644.487 L 6406.565 2644.487 L 6221.556 3516.972 L 6429.691 3516.972 L 6366.62 3811.305 L 6158.485 3811.305 L 6095.413 4114.047 L 5706.474 4114.047 L 5706.474 4114.047 Z  M 5580.332 3516.972 L 5889.381 3516.972 L 5977.68 3096.498 L 5580.332 3516.972 L 5580.332 3516.972 Z " fill="rgb(102,118,210)"/></g><path d=" M 2863.06 4022.639 L 2926.131 3719.897 L 2251.269 3719.897 L 2299.624 3488.636 L 3195.235 2553.08 L 3563.15 2553.08 L 3378.141 3425.565 L 3586.276 3425.565 L 3523.205 3719.897 L 3315.07 3719.897 L 3251.999 4022.639 L 2863.06 4022.639 L 2863.06 4022.639 Z  M 2736.917 3425.565 L 3045.966 3425.565 L 3134.266 3005.09 L 2736.917 3425.565 L 2736.917 3425.565 Z  M 4191.76 4054.175 L 4191.76 4054.175 Q 4031.979 4054.175 3911.093 3989.001 L 3911.093 3989.001 L 3911.093 3989.001 Q 3790.206 3923.827 3722.93 3798.736 L 3722.93 3798.736 L 3722.93 3798.736 Q 3655.655 3673.645 3655.655 3501.25 L 3655.655 3501.25 L 3655.655 3501.25 Q 3655.655 3391.927 3678.781 3288.911 L 3678.781 3288.911 L 3678.781 3288.911 Q 3729.238 3051.342 3848.022 2878.948 L 3848.022 2878.948 L 3848.022 2878.948 Q 3966.806 2706.553 4138.149 2614.049 L 4138.149 2614.049 L 4138.149 2614.049 Q 4309.493 2521.544 4517.628 2521.544 L 4517.628 2521.544 L 4517.628 2521.544 Q 4763.605 2521.544 4909.72 2668.71 L 4909.72 2668.71 L 4909.72 2668.71 Q 5055.835 2815.877 5055.835 3074.468 L 5055.835 3074.468 L 5055.835 3074.468 Q 5055.835 3181.69 5032.709 3288.911 L 5032.709 3288.911 L 5032.709 3288.911 Q 4982.252 3526.479 4861.366 3698.873 L 4861.366 3698.873 L 4861.366 3698.873 Q 4740.479 3871.268 4568.085 3962.721 L 4568.085 3962.721 L 4568.085 3962.721 Q 4395.69 4054.175 4191.76 4054.175 L 4191.76 4054.175 L 4191.76 4054.175 Z  M 4267.445 3705.181 L 4267.445 3705.181 Q 4408.304 3705.181 4508.167 3595.857 L 4508.167 3595.857 L 4508.167 3595.857 Q 4608.03 3486.534 4650.077 3293.115 L 4650.077 3293.115 L 4650.077 3293.115 Q 4671.101 3200.611 4671.101 3114.414 L 4671.101 3114.414 L 4671.101 3114.414 Q 4671.101 2996.681 4617.49 2934.661 L 4617.49 2934.661 L 4617.49 2934.661 Q 4563.88 2872.641 4444.045 2872.641 L 4444.045 2872.641 L 4444.045 2872.641 Q 4301.083 2872.641 4200.169 2985.118 L 4200.169 2985.118 L 4200.169 2985.118 Q 4099.255 3097.595 4057.208 3293.115 L 4057.208 3293.115 L 4057.208 3293.115 Q 4036.184 3398.234 4036.184 3465.51 L 4036.184 3465.51 L 4036.184 3465.51 Q 4036.184 3705.181 4267.445 3705.181 L 4267.445 3705.181 L 4267.445 3705.181 Z  M 5615.067 4022.639 L 5678.138 3719.897 L 5003.276 3719.897 L 5051.631 3488.636 L 5947.242 2553.08 L 6315.157 2553.08 L 6130.148 3425.565 L 6338.283 3425.565 L 6275.212 3719.897 L 6067.077 3719.897 L 6004.006 4022.639 L 5615.067 4022.639 L 5615.067 4022.639 Z  M 5488.924 3425.565 L 5797.973 3425.565 L 5886.273 3005.09 L 5488.924 3425.565 L 5488.924 3425.565 Z " fill="rgb(102,118,210)"/></g><g><g opacity="0.75"><path d=" M 2436.491 3596.07 L 2499.562 3293.329 L 1824.7 3293.329 L 1873.055 3062.068 L 2768.666 2126.511 L 3136.582 2126.511 L 2951.573 2998.996 L 3159.708 2998.996 L 3096.636 3293.329 L 2888.501 3293.329 L 2825.43 3596.07 L 2436.491 3596.07 L 2436.491 3596.07 Z  M 2310.349 2998.996 L 2619.398 2998.996 L 2707.697 2578.522 L 2310.349 2998.996 L 2310.349 2998.996 Z  M 3765.191 3627.606 L 3765.191 3627.606 Q 3605.411 3627.606 3484.524 3562.432 L 3484.524 3562.432 L 3484.524 3562.432 Q 3363.638 3497.259 3296.362 3372.168 L 3296.362 3372.168 L 3296.362 3372.168 Q 3229.086 3247.076 3229.086 3074.682 L 3229.086 3074.682 L 3229.086 3074.682 Q 3229.086 2965.358 3252.212 2862.342 L 3252.212 2862.342 L 3252.212 2862.342 Q 3302.669 2624.774 3421.453 2452.379 L 3421.453 2452.379 L 3421.453 2452.379 Q 3540.237 2279.985 3711.581 2187.48 L 3711.581 2187.48 L 3711.581 2187.48 Q 3882.924 2094.976 4091.059 2094.976 L 4091.059 2094.976 L 4091.059 2094.976 Q 4337.037 2094.976 4483.152 2242.142 L 4483.152 2242.142 L 4483.152 2242.142 Q 4629.267 2389.308 4629.267 2647.9 L 4629.267 2647.9 L 4629.267 2647.9 Q 4629.267 2755.121 4606.141 2862.342 L 4606.141 2862.342 L 4606.141 2862.342 Q 4555.684 3099.91 4434.797 3272.305 L 4434.797 3272.305 L 4434.797 3272.305 Q 4313.911 3444.7 4141.516 3536.153 L 4141.516 3536.153 L 4141.516 3536.153 Q 3969.121 3627.606 3765.191 3627.606 L 3765.191 3627.606 L 3765.191 3627.606 Z  M 3840.877 3278.612 L 3840.877 3278.612 Q 3981.736 3278.612 4081.598 3169.289 L 4081.598 3169.289 L 4081.598 3169.289 Q 4181.461 3059.965 4223.509 2866.547 L 4223.509 2866.547 L 4223.509 2866.547 Q 4244.532 2774.042 4244.532 2687.845 L 4244.532 2687.845 L 4244.532 2687.845 Q 4244.532 2570.112 4190.922 2508.092 L 4190.922 2508.092 L 4190.922 2508.092 Q 4137.311 2446.072 4017.476 2446.072 L 4017.476 2446.072 L 4017.476 2446.072 Q 3874.515 2446.072 3773.601 2558.549 L 3773.601 2558.549 L 3773.601 2558.549 Q 3672.687 2671.026 3630.639 2866.547 L 3630.639 2866.547 L 3630.639 2866.547 Q 3609.616 2971.665 3609.616 3038.941 L 3609.616 3038.941 L 3609.616 3038.941 Q 3609.616 3278.612 3840.877 3278.612 L 3840.877 3278.612 L 3840.877 3278.612 Z  M 5188.498 3596.07 L 5251.569 3293.329 L 4576.707 3293.329 L 4625.062 3062.068 L 5520.673 2126.511 L 5888.589 2126.511 L 5703.58 2998.996 L 5911.715 2998.996 L 5848.643 3293.329 L 5640.508 3293.329 L 5577.437 3596.07 L 5188.498 3596.07 L 5188.498 3596.07 Z  M 5062.356 2998.996 L 5371.405 2998.996 L 5459.704 2578.522 L 5062.356 2998.996 L 5062.356 2998.996 Z " fill="rgb(102,118,210)"/></g><g opacity="0.85"><path d=" M 2345.084 3504.663 L 2408.155 3201.921 L 1733.293 3201.921 L 1781.648 2970.66 L 2677.259 2035.104 L 3045.174 2035.104 L 2860.165 2907.589 L 3068.3 2907.589 L 3005.229 3201.921 L 2797.094 3201.921 L 2734.023 3504.663 L 2345.084 3504.663 L 2345.084 3504.663 Z  M 2218.941 2907.589 L 2527.99 2907.589 L 2616.29 2487.114 L 2218.941 2907.589 L 2218.941 2907.589 Z  M 3673.784 3536.198 L 3673.784 3536.198 Q 3514.003 3536.198 3393.117 3471.025 L 3393.117 3471.025 L 3393.117 3471.025 Q 3272.23 3405.851 3204.954 3280.76 L 3204.954 3280.76 L 3204.954 3280.76 Q 3137.678 3155.669 3137.678 2983.274 L 3137.678 2983.274 L 3137.678 2983.274 Q 3137.678 2873.951 3160.805 2770.935 L 3160.805 2770.935 L 3160.805 2770.935 Q 3211.262 2533.366 3330.046 2360.972 L 3330.046 2360.972 L 3330.046 2360.972 Q 3448.83 2188.577 3620.173 2096.073 L 3620.173 2096.073 L 3620.173 2096.073 Q 3791.517 2003.568 3999.652 2003.568 L 3999.652 2003.568 L 3999.652 2003.568 Q 4245.629 2003.568 4391.744 2150.734 L 4391.744 2150.734 L 4391.744 2150.734 Q 4537.859 2297.9 4537.859 2556.492 L 4537.859 2556.492 L 4537.859 2556.492 Q 4537.859 2663.713 4514.733 2770.935 L 4514.733 2770.935 L 4514.733 2770.935 Q 4464.276 3008.503 4343.39 3180.897 L 4343.39 3180.897 L 4343.39 3180.897 Q 4222.503 3353.292 4050.109 3444.745 L 4050.109 3444.745 L 4050.109 3444.745 Q 3877.714 3536.198 3673.784 3536.198 L 3673.784 3536.198 L 3673.784 3536.198 Z  M 3749.469 3187.204 L 3749.469 3187.204 Q 3890.328 3187.204 3990.191 3077.881 L 3990.191 3077.881 L 3990.191 3077.881 Q 4090.054 2968.558 4132.101 2775.139 L 4132.101 2775.139 L 4132.101 2775.139 Q 4153.125 2682.635 4153.125 2596.438 L 4153.125 2596.438 L 4153.125 2596.438 Q 4153.125 2478.705 4099.514 2416.685 L 4099.514 2416.685 L 4099.514 2416.685 Q 4045.904 2354.665 3926.069 2354.665 L 3926.069 2354.665 L 3926.069 2354.665 Q 3783.107 2354.665 3682.193 2467.142 L 3682.193 2467.142 L 3682.193 2467.142 Q 3581.279 2579.619 3539.232 2775.139 L 3539.232 2775.139 L 3539.232 2775.139 Q 3518.208 2880.258 3518.208 2947.534 L 3518.208 2947.534 L 3518.208 2947.534 Q 3518.208 3187.204 3749.469 3187.204 L 3749.469 3187.204 L 3749.469 3187.204 Z  M 5097.091 3504.663 L 5160.162 3201.921 L 4485.3 3201.921 L 4533.654 2970.66 L 5429.266 2035.104 L 5797.181 2035.104 L 5612.172 2907.589 L 5820.307 2907.589 L 5757.236 3201.921 L 5549.101 3201.921 L 5486.03 3504.663 L 5097.091 3504.663 L 5097.091 3504.663 Z  M 4970.948 2907.589 L 5279.997 2907.589 L 5368.297 2487.114 L 4970.948 2907.589 L 4970.948 2907.589 Z " fill="rgb(102,118,210)"/></g><path d=" M 2253.676 3413.255 L 2316.747 3110.514 L 1641.885 3110.514 L 1690.24 2879.252 L 2585.851 1943.696 L 2953.766 1943.696 L 2768.758 2816.181 L 2976.893 2816.181 L 2913.821 3110.514 L 2705.686 3110.514 L 2642.615 3413.255 L 2253.676 3413.255 L 2253.676 3413.255 Z  M 2127.534 2816.181 L 2436.583 2816.181 L 2524.882 2395.707 L 2127.534 2816.181 L 2127.534 2816.181 Z  M 3582.376 3444.791 L 3582.376 3444.791 Q 3422.596 3444.791 3301.709 3379.617 L 3301.709 3379.617 L 3301.709 3379.617 Q 3180.823 3314.444 3113.547 3189.353 L 3113.547 3189.353 L 3113.547 3189.353 Q 3046.271 3064.261 3046.271 2891.867 L 3046.271 2891.867 L 3046.271 2891.867 Q 3046.271 2782.543 3069.397 2679.527 L 3069.397 2679.527 L 3069.397 2679.527 Q 3119.854 2441.959 3238.638 2269.564 L 3238.638 2269.564 L 3238.638 2269.564 Q 3357.422 2097.169 3528.766 2004.665 L 3528.766 2004.665 L 3528.766 2004.665 Q 3700.109 1912.161 3908.244 1912.161 L 3908.244 1912.161 L 3908.244 1912.161 Q 4154.222 1912.161 4300.337 2059.327 L 4300.337 2059.327 L 4300.337 2059.327 Q 4446.452 2206.493 4446.452 2465.085 L 4446.452 2465.085 L 4446.452 2465.085 Q 4446.452 2572.306 4423.326 2679.527 L 4423.326 2679.527 L 4423.326 2679.527 Q 4372.869 2917.095 4251.982 3089.49 L 4251.982 3089.49 L 4251.982 3089.49 Q 4131.096 3261.884 3958.701 3353.338 L 3958.701 3353.338 L 3958.701 3353.338 Q 3786.306 3444.791 3582.376 3444.791 L 3582.376 3444.791 L 3582.376 3444.791 Z  M 3658.062 3095.797 L 3658.062 3095.797 Q 3798.921 3095.797 3898.783 2986.474 L 3898.783 2986.474 L 3898.783 2986.474 Q 3998.646 2877.15 4040.694 2683.732 L 4040.694 2683.732 L 4040.694 2683.732 Q 4061.717 2591.227 4061.717 2505.03 L 4061.717 2505.03 L 4061.717 2505.03 Q 4061.717 2387.297 4008.107 2325.277 L 4008.107 2325.277 L 4008.107 2325.277 Q 3954.496 2263.257 3834.661 2263.257 L 3834.661 2263.257 L 3834.661 2263.257 Q 3691.7 2263.257 3590.786 2375.734 L 3590.786 2375.734 L 3590.786 2375.734 Q 3489.872 2488.211 3447.824 2683.732 L 3447.824 2683.732 L 3447.824 2683.732 Q 3426.801 2788.85 3426.801 2856.126 L 3426.801 2856.126 L 3426.801 2856.126 Q 3426.801 3095.797 3658.062 3095.797 L 3658.062 3095.797 L 3658.062 3095.797 Z  M 5005.683 3413.255 L 5068.754 3110.514 L 4393.892 3110.514 L 4442.247 2879.252 L 5337.858 1943.696 L 5705.773 1943.696 L 5520.765 2816.181 L 5728.9 2816.181 L 5665.828 3110.514 L 5457.693 3110.514 L 5394.622 3413.255 L 5005.683 3413.255 L 5005.683 3413.255 Z  M 4879.541 2816.181 L 5188.59 2816.181 L 5276.889 2395.707 L 4879.541 2816.181 L 4879.541 2816.181 Z " fill="rgb(102,118,210)"/></g></g></g></svg>